<?xml version="1.0" encoding="UTF-8"?>
<svg id="Capa_1" xmlns="http://www.w3.org/2000/svg" viewBox="0 0 612 612">
  <defs>
    <style>
      .cls-1 {
        fill: #fff;
      }

      .cls-2 {
        fill: #1d1d1b;
      }
    </style>
  </defs>
  <g>
    <path class="cls-1" d="M306,441.91c-112.83,0-204.62-91.79-204.62-204.62S193.17,32.68,306,32.68s204.62,91.79,204.62,204.62-91.79,204.62-204.62,204.62Z"/>
    <path class="cls-2" d="M306,40.68c26.55,0,52.3,5.2,76.53,15.44,23.41,9.9,44.44,24.08,62.5,42.14,18.06,18.06,32.24,39.09,42.14,62.5,10.25,24.23,15.44,49.98,15.44,76.53s-5.2,52.3-15.44,76.53c-9.9,23.41-24.08,44.44-42.14,62.5-18.06,18.06-39.09,32.24-62.5,42.14-24.23,10.25-49.98,15.44-76.53,15.44s-52.3-5.2-76.53-15.44c-23.41-9.9-44.44-24.08-62.5-42.14-18.06-18.06-32.24-39.09-42.14-62.5-10.25-24.23-15.44-49.98-15.44-76.53s5.2-52.3,15.44-76.53c9.9-23.41,24.08-44.44,42.14-62.5,18.06-18.06,39.09-32.24,62.5-42.14,24.23-10.25,49.98-15.44,76.53-15.44M306,24.68c-117.42,0-212.62,95.19-212.62,212.62s95.19,212.62,212.62,212.62,212.62-95.19,212.62-212.62S423.42,24.68,306,24.68h0Z"/>
  </g>
  <g>
    <path d="M576.49,149.41c4.93,31.84-10.93,98.88-26.07,132.83-19.8,44.39-48.59,79.67-87.64,108.97-32.15,24.15-66.05,43.12-104.55,53.69-9.82,2.69-19.92,4.29-29.87,6.45-2.12.46-14.46,2.52-18.49,3.42,6.23,6.98,119.95,132.55,119.95,132.55h-247.62s113.73-125.57,119.95-132.55c-4.03-.9-16.38-2.96-18.49-3.42-9.96-2.17-20.06-3.76-29.87-6.45-38.51-10.57-72.4-29.55-104.57-53.69-39.04-29.3-67.83-64.58-87.63-108.97-15.14-33.95-31-100.99-26.07-132.83,18.14,17.32,39.69,42.37,57.87,59.04.81-16.91,3.99-34.23,10.37-50.16,6.88-17.11,3.63-9.29,22.75-45.7l1.74-1.81,177.75,308.46L483.76,110.77l1.74,1.81c19.12,36.41,15.87,28.59,22.75,45.7,6.38,15.93,9.5,32.87,10.37,50.16,18.18-16.67,39.73-41.71,57.87-59.04ZM488.85,340.75c41.96-37.88,70.88-97.07,70.45-154-10.14,17.47-42.55,42.13-42.55,42.13,0,0,1.32,24.16-4.93,53.37-4.1,19.13-12.54,40.43-22.97,58.51ZM504.62,229.33s-.03-8.08-1.44-20.47c-2.41-21.08-8.66-41.1-19.45-60.99-52.04,90.17-111.72,190.39-163.26,279.67,0,0,131.52-140.54,170.83-182.95,8.48-9.16,13.32-15.26,13.32-15.26ZM496.54,283.39c2.41-10.04,3.83-20.54,3.08-32.37-52.16,58.21-109.64,121.58-161.25,179.19,17.91-1.77,50.05-15.06,65.38-25.07,26.27-17.15,48.41-36.09,67.41-60.82,12.95-16.85,20.4-40.12,25.39-60.93ZM208.25,405.14c15.34,10.02,47.48,23.31,65.38,25.07-51.6-57.61-109.08-120.98-161.24-179.19-.76,11.82.67,22.32,3.08,32.37,4.99,20.81,9.9,40.5,22.85,57.36,19.02,24.73,43.68,47.24,69.94,64.39ZM120.71,244.59c39.31,42.41,170.81,182.95,170.81,182.95-51.53-89.28-111.21-189.51-163.26-279.67-10.77,19.89-17.02,39.9-19.43,60.99-1.41,12.39-1.44,20.47-1.44,20.47,0,0,4.83,6.1,13.32,15.26ZM123.16,340.75c-10.43-18.08-18.86-39.38-22.97-58.51-6.25-29.21-4.93-53.37-4.93-53.37,0,0-32.41-24.66-42.55-42.13-.43,56.93,28.49,116.12,70.45,154Z"/>
    <path class="cls-1" d="M559.29,186.75c.43,56.93-28.49,116.12-70.45,154,10.43-18.08,18.86-39.38,22.97-58.51,6.25-29.21,4.93-53.37,4.93-53.37,0,0,32.41-24.66,42.55-42.13Z"/>
    <path class="cls-1" d="M503.18,208.86c1.41,12.39,1.44,20.47,1.44,20.47,0,0-4.84,6.1-13.32,15.26-39.31,42.41-170.83,182.95-170.83,182.95,51.54-89.28,111.22-189.51,163.26-279.67,10.78,19.89,17.04,39.9,19.45,60.99Z"/>
    <path class="cls-1" d="M499.62,251.03c.76,11.82-.67,22.32-3.08,32.37-4.99,20.81-12.44,44.08-25.39,60.93-19,24.73-41.14,43.67-67.41,60.82-15.33,10.02-47.47,23.31-65.38,25.07,51.61-57.61,109.1-120.98,161.25-179.19Z"/>
    <path class="cls-1" d="M273.63,430.22c-17.89-1.77-50.03-15.06-65.38-25.07-26.26-17.15-50.92-39.66-69.94-64.39-12.95-16.85-17.86-36.54-22.85-57.36-2.41-10.04-3.83-20.54-3.08-32.37,52.16,58.21,109.64,121.58,161.24,179.19Z"/>
    <path class="cls-1" d="M291.52,427.54s-131.51-140.54-170.81-182.95c-8.49-9.16-13.32-15.26-13.32-15.26,0,0,.03-8.08,1.44-20.47,2.41-21.08,8.66-41.1,19.43-60.99,52.06,90.17,111.73,190.39,163.26,279.67Z"/>
    <path class="cls-1" d="M100.19,282.24c4.1,19.13,12.54,40.43,22.97,58.51-41.96-37.88-70.88-97.07-70.45-154,10.14,17.47,42.55,42.13,42.55,42.13,0,0-1.32,24.16,4.93,53.37Z"/>
  </g>
  <circle cx="306" cy="233.42" r="97.27"/>
  <g>
    <path d="M218.91,143.41l-8.14,9.94-8.63-4.44-10.14,12.4,5.95,7.72-8.15,9.96-36.06-51.97,8.45-10.33,56.72,26.72ZM193.34,144.12l-23.98-12.7-.13.15,16.68,21.64,7.44-9.09Z"/>
    <path d="M207.6,79.15l10.99-7.41,19.77,60.01-10.42,7.02-48.4-40.72,11.51-7.75,30,27.02-13.45-38.17Z"/>
    <path d="M282.31,114.36l-28.92,9.16-18.37-57.98,27.11-8.59,3.54,11.19-14.67,4.65,3.73,11.79,12.58-3.98,3.41,10.77-12.58,3.99,4.06,12.81,16.48-5.22,3.62,11.42Z"/>
    <path d="M281.94,53.37l17.03-.72c13.23-.56,20.12,5.5,20.66,18.18.24,5.68-1.29,10.14-4.6,13.38-3.31,3.24-8.11,5-14.4,5.27l-3.84.16,1.01,23.94-13.28.56-2.58-60.76ZM296.23,80.11l2.63-.11c2.34-.1,4.11-.92,5.33-2.47,1.22-1.55,1.77-3.68,1.65-6.41-.25-6-2.7-8.9-7.34-8.71l-3.02.13.75,17.56Z"/>
    <path d="M359.03,122.12l-12.52-2.9.17-9.71-15.6-3.62-4.3,8.75-12.53-2.91,30.68-55.31,13,3.02,1.1,62.69ZM347.09,99.5l.79-27.13-.2-.05-12.04,24.52,11.44,2.65Z"/>
    <path d="M394.55,145.08l-11.75-7.38,7.29-40.73-.17-.1-20.4,32.5-10.8-6.78,32.39-51.59,12.17,7.64-7.18,40.11.21.13,20.09-32,10.56,6.63-32.39,51.59Z"/>
    <path d="M416.72,171.58l-19.89-22.9,45.92-39.88,18.65,21.47-8.86,7.69-10.09-11.62-9.34,8.11,8.65,9.96-8.53,7.41-8.65-9.96-10.15,8.81,11.34,13.05-9.04,7.85Z"/>
  </g>
  <circle class="cls-1" cx="306" cy="230.42" r="77.56"/>
  <path d="M301.86,165.21c18.85,26.81,42.44,52.79,46.89,86.39,4.01,34.24-38.42,48.66-65.74,36.84-50.08-23.01,8.28-100.86,18.85-123.23Z"/>
</svg>