<svg width="900" height="900" viewBox="0 0 900 900" fill="none" xmlns="http://www.w3.org/2000/svg">
  <defs>
    <path id="top-arc" d="M 132 450 A 318 318 0 0 1 768 450" />
    <path id="bottom-arc" d="M 768 450 A 318 318 0 0 1 132 450" />
    <filter id="grain" x="-20%" y="-20%" width="140%" height="140%">
      <feTurbulence type="fractalNoise" baseFrequency="0.9" numOctaves="2" stitchTiles="stitch" />
      <feColorMatrix type="saturate" values="0" />
      <feComponentTransfer>
        <feFuncA type="table" tableValues="0 0.08" />
      </feComponentTransfer>
    </filter>
  </defs>

  <rect width="900" height="900" fill="#F7F8F5" />
  <circle cx="450" cy="450" r="388" fill="#FFFFFF" stroke="#111111" stroke-width="18" />
  <circle cx="450" cy="450" r="314" fill="#FAFAF7" stroke="#111111" stroke-width="4" />

  <path d="M166 450C166 320 257 208 385 180" stroke="#111111" stroke-width="22" stroke-linecap="round" />
  <path d="M734 450C734 320 643 208 515 180" stroke="#111111" stroke-width="22" stroke-linecap="round" />

  <ellipse cx="450" cy="442" rx="178" ry="202" fill="#EFEFE9" />
  <ellipse cx="450" cy="442" rx="178" ry="202" fill="black" filter="url(#grain)" opacity="0.35" />

  <ellipse cx="450" cy="287" rx="62" ry="70" fill="#1E1E1E" />
  <path d="M395 255C414 219 484 210 514 247C521 288 495 334 449 341C409 338 390 304 395 255Z" fill="#2B2B2B" />
  <path d="M411 270C419 246 443 231 468 236C484 243 493 258 494 279C486 307 468 321 444 322C424 317 411 298 411 270Z" fill="#F2F1EC" />
  <path d="M390 264C408 219 458 198 497 220C510 228 519 244 520 264C503 250 489 242 472 239C447 236 422 245 390 264Z" fill="#141414" />
  <path d="M422 285C434 277 451 275 468 280" stroke="#1C1C1C" stroke-width="4" stroke-linecap="round" />
  <path d="M438 304C449 312 462 312 474 305" stroke="#1C1C1C" stroke-width="4" stroke-linecap="round" />

  <path d="M334 396C378 350 450 349 506 384C532 417 538 462 529 523C515 556 482 583 447 586C413 585 382 566 361 534C338 500 330 448 334 396Z" fill="#B8B4AA" />
  <path d="M360 411C389 376 450 369 494 394C515 423 517 461 511 513C499 544 474 568 445 570C416 570 391 554 373 529C354 498 351 453 360 411Z" fill="#D5D1C6" />

  <path d="M269 425C303 369 358 372 396 412C381 441 360 470 332 492C297 494 271 470 269 425Z" fill="#D2CEC3" />
  <path d="M313 408C342 391 370 393 392 416C373 446 350 468 324 482C307 472 297 445 313 408Z" fill="#ECE8DE" />

  <path d="M510 438C543 414 582 424 609 470C616 516 591 553 557 566C528 565 509 550 496 524C496 492 500 464 510 438Z" fill="#D0CCC1" />
  <path d="M520 451C544 432 571 441 591 477C595 509 579 535 555 543C537 543 523 535 513 519C513 496 515 473 520 451Z" fill="#E7E3D8" />

  <path d="M392 533C422 534 450 549 474 584C461 622 434 651 398 668C367 662 348 646 339 621C343 585 360 556 392 533Z" fill="#C5C0B5" />
  <path d="M404 543C429 548 448 563 465 591C455 618 435 640 408 651C384 648 370 635 364 616C367 587 380 564 404 543Z" fill="#ECE7DD" />

  <path d="M479 536C515 518 550 525 581 558C590 605 573 652 536 680C498 685 473 671 459 641C459 600 465 566 479 536Z" fill="#CAC6BB" />
  <path d="M487 548C516 535 541 541 562 565C566 604 554 639 527 659C501 661 484 651 474 631C475 595 479 568 487 548Z" fill="#F2EDE2" />

  <path d="M320 641C372 649 418 664 449 698" stroke="#1B1B1B" stroke-width="6" stroke-linecap="round" />
  <path d="M582 645C537 654 495 668 459 700" stroke="#1B1B1B" stroke-width="6" stroke-linecap="round" />

  <path d="M320 624C374 612 424 615 462 646C421 651 372 650 320 624Z" fill="#B4B0A6" />
  <path d="M510 647C540 619 577 612 628 625C591 648 552 655 510 647Z" fill="#B4B0A6" />

  <path d="M317 683C347 680 383 686 413 706" stroke="#1B1B1B" stroke-width="8" stroke-linecap="round" />
  <path d="M499 706C532 685 568 679 603 685" stroke="#1B1B1B" stroke-width="8" stroke-linecap="round" />

  <path d="M334 690C381 693 428 709 468 743" stroke="#1B1B1B" stroke-width="10" stroke-linecap="round" opacity="0.9" />
  <path d="M451 744C498 709 552 693 612 694" stroke="#1B1B1B" stroke-width="10" stroke-linecap="round" opacity="0.9" />

  <path d="M332 662C362 650 398 653 431 673" stroke="#4B4B4B" stroke-width="4" stroke-linecap="round" />
  <path d="M486 672C518 652 551 649 585 662" stroke="#4B4B4B" stroke-width="4" stroke-linecap="round" />

  <ellipse cx="431" cy="716" rx="136" ry="20" fill="#57A438" />

  <g fill="#111111" font-family="Georgia, 'Times New Roman', serif" letter-spacing="2">
    <text font-size="70" font-weight="700">
      <textPath href="#bottom-arc" startOffset="50%" text-anchor="middle">PROYECTO NIÑOS DE LA SELVA</textPath>
    </text>
    <text font-size="38" font-weight="700">
      <textPath href="#bottom-arc" startOffset="50%" text-anchor="middle" side="right" dy="74">
        FUNDACION AC RIF: J412176560
      </textPath>
    </text>
  </g>
</svg>
